<svg width="334" height="206" viewBox="0 0 334 206" fill="none" xmlns="http://www.w3.org/2000/svg">
<path d="M55.448 86.8459L57.6392 89.5659L60.3616 91.4566L57.108 92.9493L56.6764 93.3474L56.7096 94.442L56.3444 95.2713L55.7136 95.8683L55.1492 97.6596L55.5476 99.7161L55.3484 103.166L56.3444 110.696L50.3684 112.155L49.0072 114.046L48.476 113.88L47.9116 113.98L47.5796 113.615L47.4136 113.018H46.2516L45.5876 114.046L45.82 114.908L45.3884 115.671L43.3632 116.899L41.1056 117.396L39.9436 117.23L37.686 117.728L37.1216 119.055L36.192 119.088L35.1296 118.723L33.4032 119.95L28.5228 120.249L26.6968 121.144L25.8668 122.471L25.3024 124.13L24.4392 125.457L22.1816 127.546L21.1856 129.404L19.1604 130.764L16.8364 130.797L17.268 133.252L14.9108 136.901L14.612 137.199L14.2136 137L14.1804 135.806L13.5164 135.939L13.0516 135.375L12.6532 134.579L12.0888 133.849L11.292 131.527L11.4912 130.731L12.122 129.669L12.7196 127.978L12.8524 127.347L12.62 126.982L11.9228 126.949L11.4912 126.717L10.5284 125.523L10.0304 125.224L3.35723 125.821L1.33203 125.324L2.12883 124.959L2.72643 124.362L4.51923 121.907L5.08363 121.343L6.31203 120.415L7.34123 119.983L8.00523 119.187L8.10483 117.927L8.60283 117.496L9.49923 117.064L9.69843 115.97L10.1632 115.174L10.8272 115.107L12.6532 115.472L14.6452 115.24L15.6744 115.34L16.77 116.202L18.2972 115.837H19.5588L20.4884 115.605L20.2892 114.842L19.592 114.179L18.8948 113.946L17.4672 113.781L18.098 113.217L20.2892 112.321L20.8204 111.989L21.0196 111.591L20.8536 111.193L19.2932 110.596L18.928 109.634L19.26 108.606L20.2892 107.942L21.3848 106.483L21.6172 105.621L21.0196 104.758L20.2228 104.692L18.5628 105.488L17.932 105.023V104.625L18.3304 103.431V102.768L17.9984 102.303H17.2016L16.9028 102.071L16.7368 100.877L17.4672 99.2849L17.3344 98.0244L18.8284 97.1952L19.5256 96.5649L19.8576 95.603L19.6584 94.4088L18.1644 91.2908L17.6 90.9591L17.5004 90.2625L18.0648 89.7318L17.932 86.9454L18.43 86.0498L19.0276 85.8839L19.6916 86.3152L20.2892 87.2771L25.5348 84.8557L27.3608 83.4293L28.0912 84.3249L28.7552 84.8557L31.2784 85.4196L32.6064 86.7464L34.034 86.481L37.686 84.1591L38.8812 85.1542L42.8652 85.8508L48.0776 82.7991L49.306 83.1639L48.808 84.6235L48.4096 86.5142L53.0244 84.0264L54.3192 84.9883L55.448 86.8459ZM27.6928 94.6079L24.5388 95.7357L23.9412 95.2713H22.7128L22.4804 96.1005L23.0448 97.8918L23.6092 100.446L24.6384 103.663L26.0992 104.891L27.4604 103.597L28.6224 103.763L29.9836 104.062L30.0832 101.839L30.4484 100.214L30.7472 98.2898L29.718 94.84L28.9212 94.9064L27.6928 94.6079Z" fill="#333333" stroke="#272628" stroke-width="2" stroke-linecap="round" stroke-linejoin="round"/>
<path d="M132.804 179.492L133.701 179.392L134.564 179.558L134.896 180.288V181.283L135.693 183.008L135.726 184.699L136.058 185.728L135.693 187.22L135.029 188.58L134.663 190.703L133.568 192.13L134.597 193.158H134.365L133.734 192.594L133.236 193.324L132.804 194.452L132.306 194.75L131.709 194.651L129.783 193.656L127.359 192.826L126.463 192.992L125.334 194.12L124.803 195.745L124.106 196.575L123.01 198.664L122.446 199.394L120.321 201.185L119.059 201.683L117.964 201.152L117.167 201.683L115.474 203.806L114.544 204.536L113.847 204.668L113.183 204.536L112.353 203.474H111.589L109.929 204.237L109.099 203.938L108.269 203.01H107.141L105.647 201.882L104.75 201.583H100.733L100.301 201.716L99.4382 202.346L98.3426 202.545L93.2298 201.119H89.0466L88.5818 201.351L88.0838 202.413L87.4862 202.247L86.5234 200.588L85.0958 199.56L79.153 197.702L78.0574 197.636L77.659 197.371L77.5594 196.906L78.8874 197.006L80.0162 196.409L80.1822 194.352L79.3854 192.926L77.991 191.665L76.9618 189.974L76.3642 187.851L77.1278 186.424L75.7334 182.112L78.6218 180.619L79.4518 178.43L79.319 174.085L80.7466 172.459L83.0042 171.63L85.3946 171.564L86.8886 170.37L91.4038 164.432L96.9814 163.736L97.9442 162.674L98.2762 161.115L99.2058 160.319L100.467 160.684L101.696 160.783L102.659 159.49L103.489 157.964L109.232 157.433L110.726 157.698L110.959 158.627L110.793 159.755L112.685 161.911L113.615 164.432L114.345 170.502L116.271 169.109L117.101 168.147L118.296 167.915L120.753 170.303H121.715L122.678 169.673L123.475 170.569L124.737 173.256L126.231 175.544L127.791 177.369L130.215 178.696L132.804 179.492ZM110.029 174.516L108.004 175.777L106.078 175.345L104.053 175.146L102.061 176.539L101.032 177.8L100.534 180.619L101.43 182.112L100.7 183.804L102.293 184.832L104.186 186.723L105.945 187.585L107.273 186.723L108.137 185.263L108.734 183.572L109.597 182.112H110.461L112.087 182.51L112.519 181.681L111.789 178.928L110.029 174.516Z" fill="#333333" stroke="#272628" stroke-width="2" stroke-linecap="round" stroke-linejoin="round"/>
<path d="M88.7478 61.1716L88.8806 62.1336L89.279 63.6926L89.3454 65.2848L89.1462 66.5785L89.5114 67.8389L89.4118 70.0614L90.8726 71.3219L89.8102 74.2409L90.9722 75.8663L90.4078 77.1267L89.3122 76.7619L88.8806 77.1931L89.445 79.2165L88.6814 81.3063V82.7658L87.1874 81.1072L85.461 79.9794L85.4278 81.3394L84.5314 80.9414L83.6018 80.8419L82.7718 81.6048L81.0454 80.7755L78.7878 81.5385L76.7294 83.1638L74.7706 82.2682L73.343 83.1638L70.853 82.7989L69.857 84.2916L68.7614 84.6233L67.6658 84.6565L66.9686 85.2867L66.0722 85.2536L65.2754 84.955L63.6154 83.7609L61.7894 83.9267L59.9966 84.4907L59.1002 84.3248L58.6686 85.0877L57.3406 86.1492L55.4482 86.8458L54.3194 84.9882L53.0246 84.0263L48.4098 86.5141L48.8082 84.6233L49.3062 83.1638L48.0778 82.7989L42.8654 85.8507L38.8814 85.1541L37.6862 84.1589L34.0342 86.4809L32.6066 86.7463L31.2786 85.4194L28.7554 84.8555L28.0914 84.3248L27.361 83.4292L28.0582 82.8985L27.859 79.9794L28.3902 79.3824L29.8178 78.7853L30.349 77.8565L30.4154 76.7287L30.017 75.8331L29.353 75.1365L28.523 74.6721L28.7886 73.2789L28.3902 71.8194L27.527 70.6585L26.4646 70.1609L24.8378 70.4594L23.9746 70.0946L25.6014 68.8341L27.4274 68.8009L30.1498 69.4643L30.515 68.8341L30.349 67.1092L31.7434 65.2185L32.4074 66.0146L32.9386 66.3463L35.6942 66.7775L36.1258 66.678L36.657 66.1472L37.6198 64.6214L38.2506 64.0575L38.981 65.9482L40.8402 66.3131L44.6914 65.318L48.2438 64.8536L49.273 64.3892L48.7086 64.0243L48.3102 63.4936L48.0446 62.7307L47.9782 60.3755L47.6462 58.8828L47.5798 57.6555L48.3102 56.8263L47.9782 56.3619L47.5134 55.0019L46.119 54.2389L45.787 53.9072V53.1111L46.3846 52.8126L48.0778 52.4146L48.8746 51.7843L49.3726 51.0546L49.6382 50.0926L49.8706 48.7989L49.2398 48.4341L49.3394 47.9033L49.8706 47.4721L50.269 46.3775V45.9131L49.771 45.316L52.8254 42.7619L54.6182 41.6672L56.3778 42.0321L58.901 42.7619L62.0882 43.2263L63.6154 44.5199L68.6286 51.2536L69.1266 51.718L69.6246 51.917L70.853 52.1824L71.3178 52.4809L72.9446 54.9687L73.5422 55.5658H74.0402L75.1026 55.2341L75.833 55.5989L76.829 56.3287L77.7254 57.1911L78.1238 57.9541L78.6218 58.518L81.809 60.2428L85.9258 61.3707L88.7478 61.1716ZM78.7546 62.2994L74.007 63.958L73.0774 67.5404L70.2554 69.7297L71.849 72.2507L72.5462 72.0185L74.2726 73.2126L76.1982 71.7863H79.3522L81.4106 70.6916L84.465 68.8009L84.8634 67.4741L84.299 65.0858L83.2698 62.598L81.0786 62.8302L78.7546 62.2994Z" fill="#333333" stroke="#272628" stroke-width="2" stroke-linecap="round" stroke-linejoin="round"/>
<path d="M103.09 118.856L104.153 121.642L105.149 123.466L104.783 124.395L104.75 128.475L105.082 130.465L102.825 131.46L102.26 131.56L101.829 131.958L101.264 133.119L100.6 134.114L100.268 135.109L100.169 136.303L99.2058 138.459L98.8074 141.146L98.6746 143.899L97.2138 146.752L96.2842 150.069L96.749 152.955L97.8114 153.585L99.2058 160.319L98.2762 161.115L97.9442 162.674L96.9814 163.736L91.4038 164.432L86.8886 170.37L85.3946 171.564L83.0042 171.63L80.7466 172.46L79.319 174.085L79.4518 178.43L78.6218 180.619L75.7334 182.112L77.1278 186.424L76.3642 187.851L76.9618 189.974L77.991 191.665L79.3854 192.926L80.1822 194.352L80.0162 196.409L78.8874 197.006L77.5594 196.906L77.4266 195.745L77.1278 194.12L76.7626 193.457L74.4386 191.002L72.6458 190.173L70.5874 189.741L66.4374 189.542L65.4082 190.471L65.1094 189.343L64.5782 189.111L63.4162 189.542L62.4534 189.642L62.3538 188.779L62.0882 187.585L61.557 188.481L61.059 188.348L60.4614 187.851L59.7642 187.585V187.121L61.059 186.69L60.6274 186.06L59.8306 185.96L59.067 185.661L58.6022 183.771L58.0046 181.515L57.739 180.852L55.7802 178.298L55.2158 177.966L51.265 177.833L50.5346 177.468L48.1774 175.71L47.613 175.08L47.3474 174.317L46.949 173.786L44.3594 171.663L43.8946 171.033L42.6994 168.778L40.8734 166.621L40.1762 165.892L39.6782 164.499L41.5706 163.769L42.7658 165.228L46.1854 163.935L47.0154 163.868L47.8786 163.57L48.8082 162.442L49.0406 160.85L48.2106 158.992L47.779 156.902L48.941 156.604L54.4522 155.277L55.0498 152.955L55.8798 151.363L56.6434 148.842L56.3446 139.455L58.2038 136.204L60.1958 134.545L63.4494 134.778L65.4414 133.749L67.9646 133.418L77.9246 129.172L86.7226 123.898L88.9138 123.3L90.8394 121.244L91.9682 120.481L93.263 120.149L97.9774 117.496L100.633 117.728L103.09 118.856ZM82.1742 154.415L81.6098 155.708L81.5766 157.599L81.2778 159.523L80.1158 161.016L81.4438 164.83L81.8754 169.043L83.7678 167.583L85.3614 168.612L85.959 166.92L86.9882 164.598L88.5818 163.338L88.1502 159.523L86.6894 155.476V155.078L83.5022 155.476L82.1742 154.415Z" fill="#333333" stroke="#272628" stroke-width="2" stroke-linecap="round" stroke-linejoin="round"/>
<path d="M88.6815 82.7658L88.8475 84.8224L88.5155 86.8127L90.3747 87.5424L91.9683 87.8078L92.2338 89.3336L92.7983 90.6273L93.8938 90.8927L99.4715 89.6653L101.098 92.8497L99.3387 93.3473L99.073 95.3044L99.6375 97.2283L101.729 99.2849L103.489 103.299L104.85 104.128L105.547 105.886L105.149 110.629L105.647 112.454L104.949 115.97L103.09 118.856L100.633 117.728L97.9775 117.496L93.2631 120.149L91.9683 120.481L90.8395 121.244L88.9138 123.3L86.7227 123.898L77.9247 129.172L67.9647 133.418L65.4415 133.749L63.4495 134.778L60.1959 134.545L58.2039 136.204L56.3447 139.455L53.7219 140.549L52.2279 138.294L52.8587 133.351L52.2279 117.197L52.3939 116.301L52.7923 115.605L53.0579 114.809L52.7591 114.112L51.4643 113.548L50.8999 112.918L50.3687 112.155L56.3447 110.696L55.3487 103.166L55.5479 99.7161L55.1495 97.6595L55.7139 95.8683L56.3447 95.2712L56.7099 94.4419L56.6767 93.3473L57.1083 92.9492L60.3619 91.4566L57.6395 89.5658L55.4483 86.8458L57.3407 86.1493L58.6687 85.0878L59.1003 84.3249L59.9967 84.4907L61.7895 83.9268L63.6155 83.761L65.2755 84.9551L66.0723 85.2536L66.9687 85.2868L67.6659 84.6566L68.7615 84.6234L69.857 84.2917L70.8531 82.799L73.3431 83.1639L74.7707 82.2683L76.7295 83.1639L78.7879 81.5385L81.0455 80.7756L82.7719 81.6049L83.6019 80.8419L84.5315 80.9414L85.4279 81.3395L85.461 79.9795L87.1875 81.1073L88.6815 82.7658ZM94.6243 106.848L94.0598 103.763L92.5327 100.678L91.105 99.119L89.4783 99.6497L88.9138 101.872L86.0918 102.038L85.9923 103.265L86.9218 104.459L86.7891 106.35L85.8595 108.573L88.5487 114.245L90.773 114.776L91.8355 113.747L92.765 110.629L94.757 111.326L94.6243 106.848Z" fill="#333333" stroke="#272628" stroke-width="2" stroke-linecap="round" stroke-linejoin="round"/>
<path d="M56.3442 139.455L56.643 148.842L55.8794 151.363L55.0494 152.955L54.4518 155.277L48.9406 156.604L47.5462 153.784L47.1478 151.164L45.8198 149.87L45.3218 146.785L43.2966 146.918L42.9646 149.771L41.5702 150.003L41.6034 152.093L41.6698 154.846L41.8358 158.163L43.7946 159.556L46.3178 159.921L48.2102 158.992L49.0402 160.85L48.8078 162.442L47.8782 163.57L47.015 163.868L46.185 163.935L42.7654 165.228L41.5702 163.769L39.6778 164.498L39.3126 163.404L39.4786 162.309L39.0138 161.148L38.2834 160.186L37.6526 159.556L37.1546 160.087L36.4242 159.324L35.9926 159.058L34.6646 158.76L34.3326 158.528L33.9674 159.556H33.6354L33.0378 158.296L31.5438 157.367L30.6142 156.173L29.8174 154.813L28.9542 153.718L27.8918 152.988L26.597 152.723L25.767 152.391L25.4682 152.623L25.2358 153.254H24.937L24.3062 152.59L21.9158 151.031L21.1854 147.979L19.5586 146.586L17.7658 143.734L16.0062 142.705L15.1098 141.976L14.7446 141.014L15.1762 140.284L16.1058 139.853L16.803 139.189L16.5374 137.862L15.7738 137.365L14.6118 137.199L14.9106 136.9L17.2678 133.252L16.8362 130.797L19.1602 130.764L21.1854 129.404L22.1814 127.546L24.439 125.456L25.3022 124.13L25.8666 122.471L26.6966 121.144L28.5226 120.249L33.403 119.95L35.1294 118.723L36.1918 119.088L37.1214 119.055L37.6858 117.728L39.9434 117.23L41.1054 117.396L43.363 116.898L45.3882 115.671L45.8198 114.908L45.5874 114.046L46.2514 113.017H47.4134L47.5794 113.615L47.9114 113.979L48.4758 113.88L49.007 114.046L50.3682 112.155L50.8994 112.918L51.4638 113.548L52.7586 114.112L53.0574 114.809L52.7918 115.605L52.3934 116.301L52.2274 117.197L52.8582 133.351L52.2274 138.294L53.7214 140.549L56.3442 139.455ZM39.4786 130.532L41.3046 129.802L40.5078 124.262L38.051 122.04L34.399 122.67L34.5982 127.115L36.3246 128.309V131.129L39.4786 130.532Z" fill="#333333" stroke="#272628" stroke-width="2" stroke-linecap="round" stroke-linejoin="round"/>
<path d="M140.772 88.9356L141.104 86.3814L142.033 84.2585L142 83.3297L140.274 78.4205L139.842 74.1415L142.797 73.7102L144.125 73.08L145.254 71.919L147.611 71.7532L149.736 73.1132L150.831 74.5063L152.657 75.7668L152.823 76.6293L153.886 76.4634L157.604 79.3161L158.567 79.7141L159.231 80.5102L158.135 83.2966L155.811 85.0878L154.882 86.2819L150.234 89.599L148.806 89.4L146.349 87.9073L140.772 88.9356Z" fill="#333333" stroke="#272628" stroke-width="2" stroke-linecap="round" stroke-linejoin="round"/>
<path d="M174.869 114.643L173.906 115.704L171.416 114.444L170.719 115.704L170.453 117.396L171.316 119.652L172.279 122.305L173.906 125.257L175.035 129.337L176.96 130.863L178.487 127.944V124.694L179.948 122.471H181.675L183.202 121.343L183.268 119.386L184.231 119.32L185.094 118.192L186.455 116.898L188.016 116.534L189.443 117.628L191.004 118.159L193.029 115.671L194.423 114.676L195.851 114.046L197.445 115.008L199.271 116.998L197.577 118.258L197.279 118.822L197.577 119.386L199.071 119.751L199.636 120.016V120.448L198.773 121.775L198.308 121.708L197.445 120.912L196.349 120.813V121.974L197.312 122.571L196.615 123.931L195.121 123.831L193.461 124.461L192.398 126.02L192.697 126.186L192 128.011L192.199 129.006L192.896 129.57L193.826 129.304L195.121 129.769L192.697 131.925L190.572 134.91L191.568 135.673L192 136.967L191.103 144.729L189.377 146.619L185.127 145.956L183.301 147.25L183.368 150.169L185.692 151.794L186.223 155.111L185.426 158.329L184.762 159.722L183.733 159.655L182.206 160.186L180.845 161.181L179.417 161.314L178.089 160.883L176.96 161.015L175.997 161.745L176.097 163.437L176.064 165.029L175.333 166.522L175.167 168.545L176.097 170.967L177.292 173.222L178.056 175.312L176.993 174.649L175.964 174.317L174.902 174.251L172.08 174.815L171.051 174.781L170.121 174.947L168.926 175.478L167.797 176.241L167.1 177.037L167.166 177.634L167.531 178.264L167.664 178.861L166.369 179.558L165.44 181.051L164.61 181.714L163.647 181.979L163.049 182.278L162.286 183.572L161.788 184.135L160.958 184.434H159.165L158.269 184.633L157.273 185.363L156.708 187.088L156.144 187.817L154.783 188.083L150.5 187.618L149.404 186.988L148.707 185.595L147.578 185.197L146.483 185.661L145.686 186.988L145.653 189.078L144.789 189.31L143.528 189.144L142.399 189.974L142.167 190.471L142.598 191.334L142.399 191.997L141.436 191.566L138.448 191.334L137.718 191.4L137.253 191.964L136.689 192.262L135.726 192.561L134.896 193.125L134.597 193.158L133.568 192.13L134.663 190.703L135.029 188.58L135.693 187.22L136.058 185.728L135.726 184.699L135.693 183.008L134.896 181.283V180.288L134.564 179.558L133.701 179.392L132.804 179.492L133.933 178.895L134.929 177.866L133.867 177.269L133.269 175.843L133.634 175.146L134.365 175.544L135.128 175.113L136.124 172.891L135.792 172.028L135.195 172.227L134.63 171.962L134.663 171.199L135.527 170.602L138.315 170.005L139.079 169.175L139.046 163.172L138.88 162.309L138.183 160.883L138.017 159.788L138.349 157.234L139.511 153.386L139.378 151.263L138.747 148.908L137.286 144.695L136.357 143.004L137.651 141.544L140.971 140.052L142.366 138.625L143.096 137.298L143.362 136.336L143.229 135.275L142.731 133.716L142.532 131.56L141.237 129.735L140.009 128.342L139.743 127.878L139.677 126.352L139.743 125.158L139.909 124.295L140.274 123.267L140.772 122.372L141.635 121.41L141.669 120.083L141.337 117.131L141.071 115.87L141.038 115.107L141.635 113.814L141.702 113.117L142.764 110.729L145.055 110.596L147.346 109.899L150.965 106.98L156.243 104.625L158.003 105.09L159.397 106.582L159.597 108.639L158.435 110.563L158.069 112.553L159.032 114.112L160.493 113.581L161.555 111.492L162.95 110.596L164.444 109.999L165.041 108.971L165.141 107.544L165.838 106.649L169.191 107.146L171.017 109.004L173.74 113.515L174.869 114.643Z" fill="#333333" stroke="#272628" stroke-width="2" stroke-linecap="round" stroke-linejoin="round"/>
<path d="M134.464 89.8644L135.858 91.5893L136.257 92.6507L136.854 93.4137L138.514 93.679L139.311 94.8732L138.747 98.4556L137.751 100.545L137.485 101.872L137.352 103.365L137.386 104.791L137.85 107.578L138.249 109.037L138.548 109.634L139.311 110.198L141.702 113.117L141.635 113.814L141.038 115.107L141.071 115.87L138.249 114.378L135.56 117.164L134.896 121.111L135.659 123.5L139.676 126.352L137.452 127.049L135.327 128.541L130.546 134.612L128.455 135.972L127.558 136.27L126.662 136.801L125.201 136.403L121.782 130.93L120.786 131.029L119.79 131.759L119.192 132.887L118.594 133.617L117.964 133.716L115.938 133.351L113.88 132.389L110.527 129.57L110.095 129.769H107.605L105.082 130.465L104.75 128.475L104.783 124.395L105.148 123.466L104.152 121.642L103.09 118.856L104.949 115.97L105.646 112.454L105.148 110.629L105.547 105.886L104.85 104.128L103.488 103.299L101.729 99.2849L99.6372 97.2283L99.0728 95.3044L99.3384 93.3473L101.098 92.8498L99.4712 89.6654L99.77 88.5044L100.334 87.642L100.202 85.519L100.7 83.8273L101.828 83.761L103.024 83.4293L103.82 82.1024L104.85 82.1356L107.705 84.6234L108.369 85.6849L109.232 86.2488L111.822 85.5522L111.357 84.6566L110.726 84.0263L111.423 82.9649L113.913 81.7044L115.308 80.2781L116.237 79.9132L117.001 79.1171L117.997 76.6956L119.624 75.5015L127.89 75.0039L129.816 78.9512L132.306 82.0693L132.87 83.8937L132.538 85.9503L133.833 89.1346L134.464 89.8644ZM117.798 93.7122L116.835 93.4137L115.573 95.4039L112.884 98.0907L110.494 100.844L112.784 103.464L114.245 105.985L114.81 108.672L115.374 110.795L118.362 108.971L119.989 109.8L121.715 106.98L122.578 105.023V103.033L121.416 101.474V99.6498L121.914 97.0956L120.088 95.6693H118.76L117.798 93.7122Z" fill="#333333" stroke="#272628" stroke-width="2" stroke-linecap="round" stroke-linejoin="round"/>
<path d="M127.89 75.0038L119.624 75.5014L120.022 74.0087L118.395 71.5872L115.905 71.0233L113.98 70.758L112.652 72.1843L113.216 74.0087L112.751 75.435L114.478 77.5911L117.001 79.117L116.237 79.9131L115.308 80.278L113.913 81.7043L111.423 82.9648L110.726 84.0262L111.357 84.6565L111.822 85.5521L109.232 86.2487L108.369 85.6848L107.705 84.6233L104.85 82.1355L103.82 82.1023L103.024 83.4292L101.828 83.7609L100.7 83.8272L100.202 85.5189L100.334 87.6419L99.7699 88.5043L99.4711 89.6653L93.8935 90.8926L92.7979 90.6272L92.2335 89.3336L91.9679 87.8077L90.3743 87.5423L88.5151 86.8126L88.8471 84.8223L88.6811 82.7658V81.3062L89.4447 79.2165L88.8803 77.1931L89.3119 76.7619L90.4075 77.1267L90.9719 75.8662L89.8099 74.2409L90.8723 71.3219L89.4115 70.0614L89.5111 67.8389L89.1459 66.5784L89.3451 65.2848L89.2787 63.6926L88.8803 62.1336L88.7475 61.1716L99.9359 60.4419L105.945 61.0721L107.771 60.9062L111.423 59.4136L121.416 58.2526L123.608 58.4184L125.4 59.1814L126.828 59.4799L128.256 59.314L129.451 58.5843L131.078 56.7267L131.908 56.0965L133.036 55.798L134.232 55.3999L135.858 56.4945L137.585 56.8262L138.68 58.5843L139.145 59.8116L139.444 62.0009L140.075 62.6311L139.178 63.4272L138.083 63.0623L136.091 63.7589L136.622 67.474L134.066 67.1755L131.509 67.5404L131.974 68.436L132.273 69.4975L130.945 70.4926L129.882 71.8858L129.119 73.8097L127.89 75.0038Z" fill="#333333" stroke="#272628" stroke-width="2" stroke-linecap="round" stroke-linejoin="round"/>
<path d="M171.648 62.2994L172.345 63.4272L173.541 63.8585L173.242 64.8204L172.677 65.7824L173.175 67.1092L174.105 68.1707L175.466 70.4263L175.533 71.6536L176.23 72.5492L175.732 74.7053L176.661 76.6955L178.222 77.7238L180.048 77.5248L180.313 78.8848L180.28 80.0458L182.339 81.837L183.268 83.0975L192.033 91.8545L192.431 92.8497V94.1765L192.232 95.2711L192.365 96.2663L193.195 97.5931L194.423 98.4555L196.15 101.308L194.855 104.592L194.623 108.075L196.183 111.326L198.905 113.747L201.993 114.941L199.271 116.998L197.445 115.008L195.851 114.046L194.423 114.676L193.029 115.671L191.004 118.159L189.443 117.628L188.016 116.534L186.455 116.898L185.094 118.192L184.231 119.32L183.268 119.386L182.405 119.154L180.845 119.22L177.093 116.898L174.869 114.643L173.74 113.515L171.017 109.004L169.191 107.146L165.838 106.649L165.141 107.544L165.041 108.971L164.444 109.999L162.95 110.596L161.555 111.492L160.493 113.581L159.032 114.112L158.069 112.553L158.435 110.563L159.597 108.639L159.397 106.582L158.003 105.09L156.243 104.625L150.965 106.98L147.346 109.899L145.055 110.596L142.764 110.729L141.702 113.117L139.311 110.198L138.548 109.634L138.249 109.037L137.851 107.577L137.386 104.791L137.353 103.365L137.485 101.872L137.751 100.545L138.747 98.4555L139.311 94.8731L138.515 93.6789L139.776 92.6175L140.44 90.7599L140.772 88.9355L146.35 87.9072L148.807 89.3999L150.234 89.5989L154.882 86.2819L155.812 85.0877L158.136 83.2965L159.231 80.5102L158.567 79.7141L157.605 79.316L153.886 76.4633L152.824 76.6292L152.658 75.7667L150.832 74.5063L149.736 73.1131L147.611 71.7531L145.254 71.9189L144.125 73.0799L142.797 73.7102L139.843 74.1414L140.274 78.4204L142.001 83.3297L142.034 84.2584L141.104 86.3814L139.577 84.6565L137.95 83.6614L136.622 82.2682L135.361 82.8321L135.659 85.2204L136.523 87.6419L134.464 89.8643L133.833 89.1346L132.539 85.9502L132.871 83.8936L132.306 82.0692L129.816 78.9511L127.891 75.0038L129.119 73.8097L129.883 71.8858L130.945 70.4926L132.273 69.4975L131.974 68.436L131.509 67.5404L134.066 67.1755L136.622 67.4741L136.091 63.7589L138.083 63.0624L139.179 63.4272L140.075 62.6311L139.444 62.0009L139.145 59.8116L138.681 58.5843L137.585 56.8263L135.859 56.4946L134.232 55.3999L132.439 53.9736L131.011 52.5804L130.679 51.2204L130.812 49.6614L131.277 46.676L131.144 45.8136L130.713 45.2497L131.377 44.4868L131.808 44.2214L132.771 44.0555L133.236 43.6575L134.531 40.9043L135.394 40.2077L140.042 39.1794L141.669 41.5346L141.801 44.918L140.108 46.4438L141.27 49.0311L147.313 53.3433L151.263 53.2438L161.688 55.2341L163.581 56.0965L165.207 59.7785L165.672 64.555L168.627 62.8633L171.648 62.2994Z" fill="#333333" stroke="#272628" stroke-width="2" stroke-linecap="round" stroke-linejoin="round"/>
<path d="M132.804 179.492L130.215 178.696L127.791 177.369L126.231 175.545L124.737 173.256L123.475 170.569L122.678 169.673L121.715 170.304H120.753L118.296 167.915L117.101 168.147L116.271 169.109L114.345 170.503L113.615 164.432L112.685 161.911L110.793 159.755L110.959 158.627L110.726 157.699L109.232 157.433L103.489 157.964L102.659 159.49L101.696 160.784L100.467 160.684L99.2058 160.319L97.8114 153.585L96.749 152.955L96.2842 150.069L97.2138 146.752L98.6746 143.9L98.8074 141.146L99.2058 138.46L100.169 136.304L100.268 135.109L100.6 134.114L101.264 133.119L101.829 131.958L102.26 131.56L102.825 131.461L105.082 130.465L107.605 129.769H110.095L110.527 129.57L113.88 132.389L115.939 133.351L117.964 133.716L118.595 133.617L119.192 132.887L119.79 131.759L120.786 131.029L121.782 130.93L125.201 136.403L126.662 136.801L127.559 136.27L128.455 135.972L130.547 134.612L135.327 128.542L137.452 127.049L139.677 126.352L139.743 127.878L140.009 128.343L141.237 129.736L142.532 131.56L142.731 133.716L143.229 135.275L143.362 136.337L143.096 137.299L142.366 138.625L140.971 140.052L137.651 141.545L136.357 143.004L137.286 144.696L138.747 148.908L139.378 151.264L139.511 153.386L138.349 157.234L138.017 159.788L138.183 160.883L138.88 162.309L139.046 163.172L139.079 169.176L138.315 170.005L135.527 170.602L134.663 171.199L134.63 171.962L135.195 172.227L135.792 172.028L136.124 172.891L135.128 175.113L134.365 175.545L133.634 175.146L133.269 175.843L133.867 177.269L134.929 177.866L133.933 178.895L132.804 179.492ZM131.443 158.528L130.547 157.102L129.418 157.301L128.986 158.627L127.725 158.826L126.828 158.528L126.098 159.523L125.069 160.452L124.571 161.48L124.438 162.442L124.737 163.205L125.201 163.802L126.264 163.172L126.729 162.575L127.061 164.565L127.691 165.096L128.654 165.427L129.451 164.233L129.916 163.072L130.381 162.376L131.476 162.84L132.671 163.238L133.767 163.371L136.191 164.034L137.319 164.001L137.784 163.172L137.685 162.475L137.319 161.978L136.655 162.11L136.025 162.442L135.792 161.347L135.029 161.016L134.365 161.779H134.132L133.667 161.016H132.007L131.443 158.528Z" fill="#333333" stroke="#272628" stroke-width="2" stroke-linecap="round" stroke-linejoin="round"/>
<path d="M180.712 31.5171L179.085 33.5405L178.72 36.5259L177.989 39.4781L181.807 40.2078L183.168 37.8196L185.526 36.161L187.484 34.0713L188.613 33.64L190.838 31.5503L191.966 30.8537L193.992 30.1903L194.49 30.8537L195.851 31.8488L196.78 32.8108L196.282 33.1425L195.917 33.6732L194.523 34.3035L193.46 35.4313L192.033 35.7961L191.369 36.2605L191.136 37.2225L191.468 37.6537L192.066 37.9191L193.128 39.9093L193.46 42.2976L192 42.4966L190.804 43.5581L190.174 45.3825L190.008 47.0742L188.746 48.3678L187.385 49.2303L186.754 48.5669L185.924 48.6L185.227 49.6947L184.696 50.9883L183.5 51.8839L181.907 50.9883L180.546 51.9503L178.056 56.1961L176.23 56.7932L171.648 62.2996L168.627 62.8635L165.672 64.5552L165.207 59.7786L163.58 56.0966L161.688 55.2342L151.263 53.2439L147.312 53.3435L141.27 49.0313L140.108 46.4439L141.801 44.9181L141.668 41.5347L140.042 39.1796L142.399 38.6488L143.096 38.3171L145.154 38.4166L148.076 37.9854L154.152 38.7152L154.683 38.6157L157.604 36.7249L164.178 36.8576L166.801 35L166.9 34.2371L166.768 33.3415L167.365 32.1142L167.83 29.2947L168.361 28.2332L169.224 27.7356L173.706 26.5415L174.736 26.6742L175.267 27.1717L176.329 28.4654L176.827 28.7308L179.085 28.2996L180.214 28.4986L181.077 29.5269L181.11 30.2566L180.712 31.5171Z" fill="#333333" stroke="#272628" stroke-width="2" stroke-linecap="round" stroke-linejoin="round"/>
<path d="M297.542 13.6381L296.513 14.7659L294.687 18.6469L293.658 20.3054L292.33 21.1679L291.865 21.0684L290.902 20.5708L290.338 20.604L290.072 20.9357L288.412 23.3903L287.018 25.0157L286.321 25.5796L285.358 25.9445L282.27 26.1435L281.573 26.7074L280.677 27.6362L279.747 28.3659L278.386 28.565L274.668 30.8869L273.738 31.0528L272.808 30.8869L270.883 29.9581L270.053 29.925L268.26 30.1903L265.106 30.0245L264.21 30.1903L263.479 30.6879L262.782 31.5835L262.218 32.645L261.886 33.6401L261.786 34.9337L262.417 36.161L262.583 37.1562L262.085 39.445L260.823 40.6723L259.197 41.1698L255.544 41.402L254.847 41.2362L254.25 40.7054L253.818 40.1084L253.32 39.6771L252.523 39.7435L252.191 40.0752L251.826 41.0371L251.361 41.2362H249.801L247.676 42.6625L247.145 43.2264L246.813 44.122L246.514 46.0128L246.149 47.6713L245.75 48.3015L244.157 50.1923L243.725 51.1211L243.825 53.7415L243.659 54.8693L243.36 55.4332L242.364 56.5279L242.63 58.7503V59.1815L239.941 59.6791L239.907 60.243L238.745 62.565L238.148 63.6596L235.691 66.1474L232.139 66.4791L230.777 66.6449L229.914 67.0098L228.321 66.7445L227.225 66.0147L221.847 64.9201L220.851 63.2284L220.187 60.9728L217.929 58.3191L214.808 52.7464L214.41 52.481L214.011 51.8508L214.841 50.4908L214.642 49.0645L213.978 47.9367L213.049 46.9084L212.717 45.4157L213.314 44.3211L215.505 42.0654L216.136 39.1132L217.962 37.9523L220.419 37.3884L223.374 37.2225L225.001 39.445L227.59 41.2693L230.18 42.961L232.172 42.762L234.629 42.0323L236.222 40.1747L235.99 38.5162L234.894 36.4596V34.2371L233.898 31.484L232.537 29.4274L230.678 28.3328H228.951L226.86 26.8401L221.747 30.7211L219.39 32.7445L216.8 32.9435L215.207 34.8674L212.551 32.0811L209.43 36.1942L207.77 35.0001L206.01 35.0996L204.616 36.3601H202.889L202.093 35.6967L201.462 34.6352L200.765 34.403L199.968 34.5025L199.038 33.3415L197.876 32.3132L196.781 32.8108L195.851 31.8489L194.49 30.8537L193.992 30.1903L195.917 28.9962L196.847 28.6313L197.245 28.2996L197.611 27.6362L198.075 25.8118L198.673 25.082L200.466 25.2811L201.296 24.9162L202.757 23.5562L203.288 23.2908L204.284 23.7884L204.815 24.4186L205.413 24.6508L206.541 24.0869L207.969 22.6274L209.164 20.7698L210.193 18.6469L212.086 12.8089L212.65 11.6479L213.381 10.6859L214.974 8.99423L215.638 7.9991L215.705 7.50154L215.572 5.67715L215.638 4.51618L217.066 3.95227L220.087 3.75325L230.412 1.33179H231.209L231.973 1.72984L233.4 3.05666L234.131 3.25569L235.658 3.42154L238.314 5.04691L240.04 5.21276L241.269 5.11325L242.729 5.37862L244.09 5.97569L245.053 6.97081L246.315 7.23618L250.067 5.44496L251.693 5.04691L252.59 5.44496L253.187 5.97569L253.752 6.20788L254.482 5.80984L255.047 4.98057L255.312 4.18447L255.71 3.48788L256.673 2.92398L257.503 2.75813L259.163 2.72496L261.687 1.92886L262.417 2.12788L264.044 3.12301L264.94 3.45471L265.339 3.85276L265.671 4.48301L266.102 5.90935L266.434 6.44008L267.231 6.80496L269.024 6.77179L269.854 6.97081L270.285 7.80008L270.916 10.8518L271.314 11.6147L274.07 15.8606L275.199 17.1874L276.494 18.1493L278.021 18.6801L279.515 18.5474L282.038 17.2537L284.163 16.9552L285.624 16.0928L286.354 15.7942L288.91 15.6615L289.807 15.363L290.67 15.2967L293.592 15.5952L294.521 15.3298L295.351 14.6332L296.281 13.4723L297.542 13.6381Z" fill="#333333" stroke="#272628" stroke-width="2" stroke-linecap="round" stroke-linejoin="round"/>
<path d="M297.343 73.5444L296.281 72.1844L295.285 67.9717L294.455 66.7112L292.197 69.2322L290.903 67.9717L291.201 66.081L289.774 63.56L286.387 61.6361L284.694 61.7356L283.532 63.7922L282.935 65.2849L282.038 66.2136L281.009 65.6166L280.113 64.5219L279.117 64.0907H278.087L276.029 63.3278L275.099 62.4322L272.709 61.9014L271.879 60.8068L267.331 57.1912L267.53 53.078L268.127 49.1971L267.629 47.6712L266.102 47.1405L264.21 48.2683L256.308 48.8653L254.117 49.7278L250.067 46.5102L246.514 46.0127L246.813 44.1219L247.145 43.2263L247.676 42.6624L249.801 41.2361H251.361L251.826 41.0371L252.191 40.0751L252.523 39.7434L253.32 39.6771L253.818 40.1083L254.25 40.7053L254.847 41.2361L255.545 41.4019L259.197 41.1697L260.823 40.6722L262.085 39.4449L262.583 37.1561L262.417 36.161L261.786 34.9336L261.886 33.64L262.218 32.6449L262.782 31.5834L263.479 30.6878L264.21 30.1902L265.106 30.0244L268.26 30.1902L270.053 29.9249L270.883 29.958L272.809 30.8868L273.738 31.0527L274.668 30.8868L278.386 28.5649L279.747 28.3658L280.677 27.6361L281.573 26.7073L282.271 26.1434L285.358 25.9444L286.321 25.5795L287.018 25.0156L288.413 23.3902L290.073 20.9356L290.338 20.6039L290.903 20.5707L291.865 21.0683L292.33 21.1678L293.658 20.3053L294.687 18.6468L296.513 14.7658L297.543 13.638L298.074 13.1073L299.667 12.4771L301.327 12.6761L303.087 13.5717L302.357 15.7941V16.9551L304.017 16.9219L304.382 17.5522L304.282 19.1112L304.315 20.1395L304.847 21.6322L307.237 25.3473L307.569 25.679L308.299 25.6458L308.864 25.2478H309.295L310.225 25.6458L311.022 25.8117L311.785 25.7453L312.715 25.281L313.313 25.3805L316.965 30.1902L317.595 31.6829L318.293 34.0049L319.123 35.7629L319.488 36.0614L320.152 35.6966H323.671L324.567 35.398L325.397 34.8673L326.227 34.6351L327.024 35.1658L327.19 35.4975L328.95 36.4927L330.377 37.8527L331.041 38.6819L331.539 39.6771L331.871 41.0702L331.705 41.8332L331.373 42.4966L331.307 43.6575L330.477 44.6858L330.875 45.5814L332.668 47.041L331.871 47.9697L330.643 50.2585L329.846 50.9883L327.887 51.718L327.091 52.2819L326.559 53.2771L326.593 53.9073L326.925 54.9024L326.526 55.6985L326.227 55.8975L325.165 56.0302L324.169 56.4614L323.571 56.959L322.376 58.5512L320.949 59.8117L319.156 60.5746L317.297 60.84L315.603 60.5746L311.985 58.6507L310.491 58.9824L309.694 61.8683L309.129 62.399L308.499 62.6644L307.801 62.7307L305.544 62.399L304.913 62.4654L304.05 62.7639L303.153 63.2614L302.589 63.8585L301.527 65.4839L300.298 66.4458L299.767 67.441L299.468 69.398L298.24 71.1229L297.974 72.7151L297.709 73.2458L297.343 73.5444ZM279.88 41.4351L278.486 40.4732L276.627 41.7668L275.763 40.838L273.273 41.0039L272.41 42.6624L271.979 44.2214L271.613 47.9034L271.248 52.3483L274.203 53.2771L277.523 54.1727L279.15 55.3005L281.872 54.7366L282.968 52.3483L283.101 49.761L284.694 49.3961L284.827 46.6097L284.694 44.0224L283.698 42.9278L282.47 43.8566L279.88 43.6575V41.4351Z" fill="#333333" stroke="#272628" stroke-width="2" stroke-linecap="round" stroke-linejoin="round"/>
<path d="M271.945 114.112L272.045 114.477L272.941 114.776L273.273 115.074L273.572 116.036L272.642 119.585L272.211 120.116L269.721 122.206L269.687 123.931L269.853 125.457L269.455 126.385L268.957 126.817L267.164 127.314L266.135 128.276L265.537 129.437L264.475 132.29L264.11 133.02L263.944 133.882L264.309 134.38L265.637 135.275L265.471 136.702L264.575 138.028L263.612 138.559L262.251 138.824L261.753 139.654L261.321 140.848L260.292 142.175L259.263 142.739L257.437 142.606L256.407 142.871L255.644 143.767L255.378 145.127L255.179 147.847L254.581 149.141L253.751 150.235L253.054 151.363L252.921 152.822L254.349 155.542L254.681 157.102L253.552 157.964L251.461 158.063L250.498 158.395L249.701 159.357L249.203 160.916L249.004 164.067L248.572 165.427L248.008 166.489L247.543 166.854H246.115L245.817 167.02L243.459 169.872L242.596 170.204L241.301 168.943L240.505 168.778L240.04 168.943L239.077 169.01L237.284 168.214L236.388 168.015L235.359 168.512L234.462 168.38L233.599 167.617L233.134 167.384L232.138 167.351L231.109 167.65L230.578 167.948L229.98 167.053L229.084 166.323L228.719 165.228L229.117 163.503L229.183 161.845L228.619 160.485L227.822 159.423L226.859 159.523L226.395 158.694L223.838 159.39L221.381 159.357L222.245 157.4L220.684 157.831L220.717 154.846L221.215 153.95L220.883 152.524L221.946 150.7L222.61 148.411L221.182 147.781L220.419 146.354L220.219 141.047L220.917 137.663L220.751 133.119L219.19 131.66L216.767 130.996L212.783 129.57L212.052 127.215L212.583 125.125L214.476 123.433L216.202 123.267L217.862 123.699L219.223 121.742L220.651 122.14L221.78 121.144L222.543 121.642L223.141 122.504L224.104 122.272L225.033 121.609L225.83 121.476L226.594 120.979L227.092 118.822L226.859 116.467L226.395 115.572L226.328 114.477L228.187 112.222L228.154 111.26L227.988 110.862L228.486 109.9L229.283 109.336L232.238 105.687L233.201 105.322L234.197 105.621L234.861 105.189L235.292 104.294L235.989 104.028L236.521 103.133L236.919 102.204L238.114 101.74L238.645 100.977L239.044 100.015L239.741 99.0196L240.704 98.5552L246.713 102.502L248.805 103.265L251.029 103.498L254.183 105.057L255.179 107.146L255.146 112.321L255.046 114.378L255.677 115.505L256.839 115.837L257.769 116.733L257.304 118.491L258.233 119.386L259.86 119.751L263.247 118.789L265.305 118.822L268.658 115.406L270.75 114.411L271.945 114.112ZM251.062 136.702L250.199 134.313L250.797 131.494L248.572 128.276L243.891 126.087L241.866 129.736L239.741 131.958L240.505 135.607L241.102 139.388L243.791 139.355L246.082 138.924L249.137 139.057L251.062 136.702Z" fill="#333333" stroke="#272628" stroke-width="2" stroke-linecap="round" stroke-linejoin="round"/>
<path d="M230.578 167.948L230.146 168.181L228.221 169.773L228.021 170.171L228.055 170.834L228.486 172.393V172.957L228.088 173.355L227.191 173.123L226.793 173.256L226.561 173.786L226.494 174.782L226.262 175.478L225.498 176.307L224.535 176.805L221.78 177.402L220.85 177.137L220.352 176.805L218.925 175.511L216.999 174.682L215.007 174.251L213.812 176.175L205.943 176.374L203.985 178.895L201.329 176.606L200.432 176.274L199.204 176.838L198.473 176.705L197.71 175.777L198.341 173.256L199.005 172.426L200.167 172.559L201.329 173.952L202.192 175.743L203.321 175.478L203.42 173.952L202.457 173.09L201.793 171.862L201.694 170.735L202.291 169.673L203.985 170.005L205.346 169.905L205.246 168.247L208.068 167.782H210.193L212.285 168.877L215.173 169.176L217.464 167.351L218.825 163.47L220.551 161.381L221.381 159.357L223.838 159.39L226.395 158.694L226.859 159.523L227.822 159.423L228.619 160.485L229.183 161.845L229.117 163.503L228.719 165.228L229.084 166.323L229.98 167.053L230.578 167.948ZM220.717 154.846L219.755 153.718L218.028 151.927L216.401 149.97L214.675 148.842L210.459 150.534L208.367 149.837L206.641 149.704L205.877 151.363L204.914 155.542L203.752 157.201L202.889 154.282L201.793 153.486L201.295 155.874L201.329 157.566L201.627 159.059L201.793 160.684L202.059 161.414L202.657 161.944L202.424 163.105L202.69 164.167L201.229 164.233L200.266 162.409L199.303 161.447L197.577 163.404L194.689 162.84L192.796 164.101L192.597 167.849L195.485 168.678L195.95 170.469L195.485 171.299L195.22 176.274L193.825 176.44L191.767 175.279L188.646 174.981L186.687 175.412L181.873 177.402L181.01 177.236L178.055 175.312L177.292 173.222L176.097 170.967L175.167 168.545L175.333 166.522L176.063 165.029L176.097 163.437L175.997 161.745L176.96 161.016L178.089 160.883L179.417 161.314L180.844 161.182L182.205 160.186L183.733 159.656L184.762 159.722L185.426 158.329L186.223 155.111L185.691 151.794L183.367 150.169L183.301 147.25L185.127 145.956L189.377 146.62L191.103 144.729L191.999 136.967L191.568 135.673L190.572 134.91L192.697 131.925L195.12 129.769L198.706 132.058L204.317 130.2L206.076 131.859L207.869 132.356L209.429 131.096L211.156 130.565L212.783 129.57L216.767 130.996L219.19 131.66L220.751 133.119L220.917 137.663L220.219 141.047L220.419 146.354L221.182 147.781L222.61 148.411L221.946 150.7L220.883 152.524L221.215 153.95L220.717 154.846Z" fill="#333333" stroke="#272628" stroke-width="2" stroke-linecap="round" stroke-linejoin="round"/>
<path d="M297.343 73.5444L297.045 73.7434L294.654 74.3737L291.633 76.6625L290.172 78.2215L289.243 80.0127L289.375 82.2683L289.807 84.7561L289.873 87.1776L288.911 89.1678L286.719 89.8312L285.856 90.362L284.96 91.3571L283.067 94.1103L282.769 94.9727L282.204 97.56L281.374 99.2517L281.175 100.048V100.91L281.308 102.204L281.009 103.1L280.611 103.663L279.515 104.725L279.05 105.388L278.585 107.312L278.253 107.942L277.291 108.938L274.867 110.53L273.771 111.558L271.879 113.88L271.945 114.112L270.75 114.411L268.659 115.406L265.305 118.822L263.247 118.789L259.861 119.751L258.234 119.386L257.304 118.491L257.769 116.733L256.839 115.837L255.677 115.505L255.047 114.378L255.146 112.321L255.179 107.146L254.183 105.057L251.029 103.498L248.805 103.265L246.713 102.502L240.704 98.5551L242.065 94.9395L242.331 90.362L241.866 86.9454L241.036 83.5288L240.472 77.3922L239.808 74.5064L238.314 73.0468L236.72 72.8478L235.16 72.1181L233.267 70.1942L232.139 66.479L235.691 66.1473L238.148 63.6595L238.745 62.5649L239.907 60.2429L239.941 59.679L242.63 59.1815V58.7503L242.364 56.5278L243.36 55.4332L243.659 54.8693L243.825 53.7415L243.725 51.121L244.157 50.1922L245.751 48.3015L246.149 47.6712L246.514 46.0127L250.067 46.5103L254.117 49.7278L256.308 48.8654L264.21 48.2683L266.102 47.1405L267.629 47.6712L268.127 49.1971L267.53 53.0781L267.331 57.1912L271.879 60.8068L272.709 61.9015L275.099 62.4322L276.029 63.3278L278.087 64.0907H279.117L280.113 64.522L281.009 65.6166L282.038 66.2137L282.935 65.2849L283.532 63.7922L284.694 61.7356L286.387 61.6361L289.774 63.56L291.201 66.081L290.903 67.9717L292.197 69.2322L294.455 66.7112L295.285 67.9717L296.281 72.1844L297.343 73.5444ZM266.899 66.5122L267.53 62.6644L266.534 63.3942L264.442 65.5834L262.384 71.5542L261.288 75.7668L261.421 79.4156H264.741L265.737 82.8985L267.264 83.562L268.526 84.4907L269.123 87.4098H272.111L274.801 83.9268L276.66 83.562L278.652 85.5854L281.972 81.7376L282.968 78.9844L283.101 74.4068L281.507 71.4546L279.648 69.0995L277.921 69.6303L276.295 71.6537L274.07 72.9473L272.709 71.0898L271.613 67.8059L270.75 64.4888L268.26 64.8537L267.629 67.0761L266.899 66.5122Z" fill="#333333" stroke="#272628" stroke-width="2" stroke-linecap="round" stroke-linejoin="round"/>
<path d="M215.206 34.8674L216.036 35.7298L216.302 37.4547L216.136 39.1132L215.505 42.0654L213.314 44.3211L212.716 45.4157L211.388 43.7571V41.6674L210.924 40.2742L208.6 39.8098L207.836 42.364L206.608 43.0606L206.906 45.3825L207.537 48.1357L206.906 51.1211V54.1396L208.002 56.8928H210.16L211.222 55.5328V53.443L212.318 52.282L214.011 51.8508L214.41 52.4811L214.808 52.7464L217.929 58.3191L220.186 60.9728L220.85 63.2284L221.846 64.9201L227.225 66.0147L228.32 66.7445L229.914 67.0098L229.383 68.2371L228.752 69.1659L227.291 69.763L226.793 70.2274L227.092 71.0898L226.76 71.8528L226.063 72.1181V72.5825L225.797 73.843L217.132 79.7142L216.7 80.3113L216.435 81.8371L215.771 82.4342L214.011 83.0313L213.148 84.1591L212.683 84.524L211.488 84.8888L210.392 84.5903L207.604 82.6996L206.74 81.6049L206.176 80.3113L206.508 78.7191L205.678 76.4303L203.819 75.4352L202.889 74.1747L202.358 72.284L201.694 71.7532L197.079 73.0469L197.544 74.0752L198.308 74.6059L195.884 75.2693L193.294 73.4781L192.464 70.7249L192.099 67.7728L190.207 67.1425L187.85 67.9054L186.721 67.6069L185.891 68.3698L183.235 72.0518L182.637 71.9191L181.542 71.0567L178.852 71.322L176.23 72.5493L175.532 71.6537L175.466 70.4264L174.105 68.1708L173.175 67.1093L172.677 65.7825L173.242 64.8206L173.54 63.8586L172.345 63.4274L171.648 62.2996L176.23 56.7932L178.056 56.1962L180.546 51.9503L181.907 50.9884L183.5 51.884L184.696 50.9884L185.227 49.6947L185.924 48.6001L186.754 48.5669L187.385 49.2303L188.746 48.3679L190.008 47.0742L190.174 45.3825L190.804 43.5581L192 42.4967L193.46 42.2976L193.128 39.9093L192.066 37.9191L191.468 37.6537L191.136 37.2225L191.369 36.2606L192.033 35.7962L193.46 35.4313L194.523 34.3035L195.917 33.6733L196.282 33.1425L196.78 32.8108L197.876 32.3133L199.038 33.3415L199.968 34.5025L200.764 34.403L201.462 34.6352L202.092 35.6967L202.889 36.3601H204.616L206.01 35.0996L207.77 35.0001L209.43 36.1942L212.55 32.0811L215.206 34.8674Z" fill="#333333" stroke="#272628" stroke-width="2" stroke-linecap="round" stroke-linejoin="round"/>
<path d="M240.704 98.5551L239.741 99.0195L239.044 100.015L238.645 100.977L238.114 101.739L236.919 102.204L236.521 103.133L235.989 104.028L235.292 104.294L234.861 105.189L234.197 105.62L233.201 105.322L232.238 105.687L229.283 109.336L228.486 109.899L227.988 110.861L228.154 111.259L228.187 112.221L226.328 114.477L226.395 115.572L226.859 116.467L227.092 118.822L226.594 120.979L225.83 121.476L225.033 121.609L224.104 122.272L223.141 122.504L222.543 121.642L221.78 121.144L220.651 122.139L219.223 121.741L217.862 123.699L216.202 123.267L214.476 123.433L212.583 125.125L212.052 127.215L212.783 129.57L211.156 130.565L209.429 131.096L207.869 132.356L206.076 131.859L204.317 130.2L198.706 132.058L195.12 129.769L193.825 129.304L192.896 129.57L192.199 129.006L191.999 128.011L192.697 126.186L192.398 126.02L193.46 124.461L195.12 123.831L196.614 123.931L197.311 122.571L196.349 121.974V120.813L197.444 120.912L198.307 121.708L198.772 121.775L199.635 120.448V120.017L199.071 119.751L197.577 119.386L197.278 118.822L197.577 118.259L199.27 116.998L201.993 114.941L198.905 113.747L196.183 111.326L194.622 108.075L194.855 104.592L197.71 105.156L200.133 107.014L200.797 107.246L202.889 108.44L205.379 108.075L206.873 106.98L206.973 104.625L205.246 103.896L204.25 101.806L205.777 100.678L206.143 99.7824L204.881 97.3278L201.528 94.6078L198.573 90.959L195.12 94.9727L193.195 97.5932L192.365 96.2663L192.232 95.2712L192.431 94.1766V92.8497L192.033 91.8546L183.268 83.0975L182.338 81.8371L180.28 80.0458L180.313 78.8849L180.047 77.5249L178.221 77.7239L176.661 76.6956L175.731 74.7053L176.229 72.5492L178.852 71.3219L181.541 71.0566L182.637 71.919L183.235 72.0517L185.891 68.3697L186.721 67.6068L187.849 67.9053L190.207 67.1424L192.099 67.7727L192.464 70.7249L193.294 73.478L195.884 75.2692L198.307 74.6058L197.544 74.0751L197.079 73.0468L201.694 71.7532L202.358 72.2839L202.889 74.1746L203.819 75.4351L205.678 76.4302L206.508 78.719L206.176 80.3112L206.74 81.6049L207.603 82.6995L210.392 84.5902L211.488 84.8888L212.683 84.5239L213.148 84.159L214.011 83.0312L215.771 82.4341L216.435 81.8371L216.7 80.3112L217.132 79.7141L225.797 73.8429L226.063 72.5824V72.118L226.76 71.8527L227.092 71.0897L226.793 70.2273L227.291 69.7629L228.752 69.1658L229.383 68.2371L229.914 67.0097L230.777 66.6449L232.138 66.479L233.267 70.1941L235.159 72.118L236.72 72.8478L238.313 73.0468L239.807 74.5063L240.471 77.3922L241.036 83.5288L241.866 86.9453L242.331 90.3619L242.065 94.9395L240.704 98.5551Z" fill="#FF0031" stroke="#272628" stroke-width="2" stroke-linecap="round" stroke-linejoin="round"/>
<path d="M27.6929 94.6079L28.9213 94.9064L29.7181 94.8401L30.7473 98.2899L30.4485 100.214L30.0833 101.839L29.9837 104.062L28.6225 103.763L27.4605 103.597L26.0993 104.891L24.6385 103.664L23.6093 100.446L23.0449 97.8918L22.4805 96.1006L22.7129 95.2713H23.9413L24.5389 95.7357L27.6929 94.6079Z" fill="#333333" stroke="#272628" stroke-width="2" stroke-linecap="round" stroke-linejoin="round"/>
<path d="M31.7432 65.2186L30.3488 67.1093L30.5148 68.8342L30.1496 69.4645L27.4272 68.801L25.6012 68.8342L23.9744 70.0947L21.6172 69.1328L20.2892 69.4313L17.5336 68.3035L16.6704 67.8059L17.8324 66.0479L18.1976 65.683L18.928 66.3132L19.8576 65.5835L21.7832 64.5552L22.2148 64.1571L22.4804 63.5269L22.3808 62.5649L22.6796 61.8684L24.4724 61.0723L26.5308 61.3045L30.4484 62.8635L31.046 63.2947L31.5108 64.6879L31.7432 65.2186Z" fill="#333333" stroke="#272628" stroke-width="2" stroke-linecap="round" stroke-linejoin="round"/>
<path d="M78.7546 62.2996L81.0786 62.8303L83.2698 62.5981L84.299 65.0859L84.8634 67.4742L84.465 68.801L81.4106 70.6918L79.3522 71.7864H76.1982L74.2726 73.2127L72.5462 72.0186L71.849 72.2508L70.2554 69.7298L73.0774 67.5405L74.007 63.9581L78.7546 62.2996Z" fill="#333333" stroke="#272628" stroke-width="2" stroke-linecap="round" stroke-linejoin="round"/>
<path d="M119.623 75.5015L117.997 76.6956L117.001 79.1171L114.477 77.5912L112.751 75.4351L113.216 74.0088L112.651 72.1844L113.979 70.7581L115.905 71.0234L118.395 71.5873L120.022 74.0088L119.623 75.5015Z" fill="#333333" stroke="#272628" stroke-width="2" stroke-linecap="round" stroke-linejoin="round"/>
<path d="M141.104 86.3815L140.772 88.9356L140.44 90.76L139.776 92.6176L138.514 93.679L136.854 93.4137L136.257 92.6508L135.858 91.5893L134.464 89.8644L136.522 87.642L135.659 85.2205L135.36 82.8322L136.622 82.2683L137.95 83.6615L139.577 84.6566L141.104 86.3815Z" fill="#333333" stroke="#272628" stroke-width="2" stroke-linecap="round" stroke-linejoin="round"/>
<path d="M117.798 93.7121L118.76 95.6692H120.088L121.914 97.0955L121.416 99.6497V101.474L122.578 103.033V105.023L121.715 106.98L119.989 109.8L118.362 108.971L115.374 110.795L114.81 108.672L114.245 105.985L112.784 103.464L110.494 100.844L112.884 98.0907L115.573 95.4038L116.835 93.4136L117.798 93.7121Z" fill="#333333" stroke="#272628" stroke-width="2" stroke-linecap="round" stroke-linejoin="round"/>
<path d="M94.6242 106.848L94.757 111.326L92.765 110.629L91.8354 113.747L90.773 114.776L88.5486 114.245L85.8594 108.573L86.789 106.35L86.9218 104.46L85.9922 103.265L86.0918 102.038L88.9138 101.872L89.4782 99.6499L91.105 99.1191L92.5326 100.678L94.0598 103.763L94.6242 106.848Z" fill="#333333" stroke="#272628" stroke-width="2" stroke-linecap="round" stroke-linejoin="round"/>
<path d="M39.479 130.532L36.325 131.129V128.309L34.5986 127.115L34.3994 122.67L38.0514 122.04L40.5082 124.262L41.305 129.802L39.479 130.532Z" fill="#333333" stroke="#272628" stroke-width="2" stroke-linecap="round" stroke-linejoin="round"/>
<path d="M48.9407 156.604L47.7787 156.902L48.2103 158.992L46.3179 159.921L43.7947 159.556L41.8359 158.163L41.6699 154.846L41.6035 152.093L41.5703 150.003L42.9647 149.771L43.2967 146.918L45.3219 146.785L45.8199 149.87L47.1479 151.164L47.5463 153.784L48.9407 156.604Z" fill="#333333" stroke="#272628" stroke-width="2" stroke-linecap="round" stroke-linejoin="round"/>
<path d="M82.1741 154.415L83.5021 155.476L86.6893 155.078V155.476L88.1501 159.523L88.5817 163.337L86.9881 164.598L85.9589 166.92L85.3613 168.612L83.7677 167.583L81.8753 169.043L81.4437 164.83L80.1157 161.016L81.2777 159.523L81.5765 157.599L81.6097 155.708L82.1741 154.415Z" fill="#333333" stroke="#272628" stroke-width="2" stroke-linecap="round" stroke-linejoin="round"/>
<path d="M110.029 174.516L111.789 178.928L112.519 181.681L112.087 182.51L110.461 182.112H109.597L108.734 183.572L108.137 185.263L107.273 186.723L105.945 187.585L104.186 186.723L102.293 184.832L100.7 183.804L101.43 182.112L100.534 180.62L101.032 177.8L102.061 176.54L104.053 175.146L106.078 175.345L108.004 175.777L110.029 174.516Z" fill="#333333" stroke="#272628" stroke-width="2" stroke-linecap="round" stroke-linejoin="round"/>
<path d="M131.443 158.528L132.007 161.015H133.667L134.132 161.778H134.364L135.028 161.015L135.792 161.347L136.024 162.442L136.655 162.11L137.319 161.977L137.684 162.475L137.784 163.172L137.319 164.001L136.19 164.034L133.767 163.371L132.671 163.238L131.476 162.84L130.38 162.375L129.916 163.072L129.451 164.233L128.654 165.427L127.691 165.095L127.06 164.565L126.728 162.574L126.264 163.172L125.201 163.802L124.736 163.205L124.438 162.442L124.57 161.48L125.068 160.452L126.098 159.523L126.828 158.528L127.724 158.826L128.986 158.627L129.418 157.3L130.546 157.101L131.443 158.528Z" fill="#333333" stroke="#272628" stroke-width="2" stroke-linecap="round" stroke-linejoin="round"/>
<path d="M174.868 114.643L177.093 116.898L180.844 119.22L182.405 119.154L183.268 119.386L183.201 121.343L181.674 122.471H179.948L178.487 124.694V127.944L176.96 130.863L175.034 129.338L173.905 125.258L172.279 122.305L171.316 119.652L170.453 117.396L170.718 115.704L171.415 114.444L173.905 115.704L174.868 114.643Z" fill="#333333" stroke="#272628" stroke-width="2" stroke-linecap="round" stroke-linejoin="round"/>
<path d="M202.69 164.167L203.122 165.129L203.321 166.058L202.956 167.053L204.184 167.981L205.246 168.247L205.346 169.905L203.985 170.005L202.292 169.673L201.694 170.735L201.794 171.862L202.458 173.09L203.42 173.952L203.321 175.478L202.192 175.743L201.329 173.952L200.167 172.559L199.005 172.426L198.341 173.256L197.71 175.777L196.913 175.577L196.448 175.644L195.22 176.274L195.486 171.298L195.95 170.469L195.486 168.678L192.597 167.849L192.796 164.1L194.689 162.84L197.577 163.404L199.304 161.447L200.266 162.409L201.229 164.233L202.69 164.167Z" fill="#333333" stroke="#272628" stroke-width="2" stroke-linecap="round" stroke-linejoin="round"/>
<path d="M220.717 154.846L220.684 157.831L222.245 157.4L221.381 159.357L220.551 161.381L218.825 163.47L217.464 167.351L215.173 169.176L212.285 168.877L210.193 167.783H208.068L205.246 168.247L204.184 167.982L202.955 167.053L203.321 166.058L203.121 165.129L202.69 164.167L202.424 163.105L202.657 161.944L202.059 161.414L201.793 160.684L201.627 159.059L201.329 157.566L201.295 155.874L201.793 153.486L202.889 154.282L203.752 157.201L204.914 155.543L205.877 151.363L206.641 149.704L208.367 149.837L210.459 150.534L214.675 148.842L216.401 149.97L218.028 151.927L219.755 153.718L220.717 154.846Z" fill="#333333" stroke="#272628" stroke-width="2" stroke-linecap="round" stroke-linejoin="round"/>
<path d="M194.855 104.592L196.15 101.308L194.423 98.4556L193.195 97.5931L195.12 94.9726L198.573 90.959L201.528 94.6078L204.881 97.3278L206.143 99.7824L205.778 100.678L204.25 101.806L205.246 103.896L206.973 104.625L206.873 106.98L205.379 108.075L202.889 108.44L200.798 107.246L200.134 107.014L197.71 105.156L194.855 104.592Z" fill="#333333" stroke="#272628" stroke-width="2" stroke-linecap="round" stroke-linejoin="round"/>
<path d="M251.062 136.702L249.137 139.057L246.082 138.924L243.792 139.355L241.102 139.388L240.505 135.607L239.741 131.958L241.866 129.736L243.891 126.087L248.572 128.276L250.797 131.494L250.199 134.313L251.062 136.702Z" fill="#333333" stroke="#272628" stroke-width="2" stroke-linecap="round" stroke-linejoin="round"/>
<path d="M212.716 45.4157L213.048 46.9083L213.978 47.9366L214.642 49.0644L214.841 50.4908L214.011 51.8508L212.318 52.282L211.222 53.443V55.5327L210.16 56.8927H208.002L206.906 54.1396V51.121L207.537 48.1357L206.906 45.3825L206.607 43.0605L207.836 42.364L208.599 39.8098L210.923 40.2742L211.388 41.6674V43.7571L212.716 45.4157Z" fill="#333333" stroke="#272628" stroke-width="2" stroke-linecap="round" stroke-linejoin="round"/>
<path d="M187.484 34.0712L185.526 36.161L183.168 37.8195L181.807 40.2078L177.989 39.4781L178.72 36.5259L179.085 33.5405L180.712 31.5171L181.176 32.2137L181.641 32.28L183.401 31.5834L184.596 31.9815L186.455 33.6732L187.484 34.0712Z" fill="#333333" stroke="#272628" stroke-width="2" stroke-linecap="round" stroke-linejoin="round"/>
<path d="M216.136 39.1133L216.302 37.4547L216.037 35.7298L215.207 34.8674L216.8 32.9435L219.39 32.7445L221.747 30.7211L226.86 26.8401L228.951 28.3328H230.678L232.537 29.4274L233.898 31.484L234.894 34.2372V36.4596L235.99 38.5162L236.222 40.1747L234.629 42.0323L232.172 42.762L230.18 42.9611L227.59 41.2694L225.001 39.445L223.374 37.2225L220.419 37.3884L217.962 37.9523L216.136 39.1133Z" fill="#333333" stroke="#272628" stroke-width="2" stroke-linecap="round" stroke-linejoin="round"/>
<path d="M279.88 41.4351V43.6575L282.47 43.8566L283.698 42.9278L284.694 44.0224L284.827 46.6097L284.694 49.3961L283.1 49.7609L282.968 52.3483L281.872 54.7366L279.15 55.3005L277.523 54.1727L274.203 53.277L271.248 52.3483L271.613 47.9034L271.978 44.2214L272.41 42.6624L273.273 41.0039L275.763 40.838L276.626 41.7668L278.486 40.4731L279.88 41.4351Z" fill="#333333" stroke="#272628" stroke-width="2" stroke-linecap="round" stroke-linejoin="round"/>
<path d="M266.899 66.5121L267.629 67.076L268.26 64.8536L270.75 64.4887L271.613 67.8058L272.709 71.0897L274.07 72.9472L276.295 71.6536L277.921 69.6302L279.648 69.0994L281.507 71.4546L283.101 74.4068L282.968 78.9843L281.972 81.7375L278.652 85.5853L276.66 83.5619L274.801 83.9268L272.111 87.4097H269.123L268.526 84.4907L267.264 83.5619L265.737 82.8985L264.741 79.4155H261.421L261.288 75.7668L262.384 71.5541L264.442 65.5833L266.534 63.3941L267.53 62.6643L266.899 66.5121Z" fill="#333333" stroke="#272628" stroke-width="2" stroke-linecap="round" stroke-linejoin="round"/>
<path d="M141.071 115.87L141.336 117.131L141.668 120.083L141.635 121.41L140.772 122.372L140.274 123.267L139.909 124.295L139.743 125.158L139.676 126.352L135.659 123.499L134.896 121.111L135.56 117.164L138.249 114.377L141.071 115.87Z" fill="#333333" stroke="#272628" stroke-width="2" stroke-linecap="round" stroke-linejoin="round"/>
<line x1="161.5" y1="99" x2="161.5" y2="32" stroke="white"/>
<line x1="162.359" y1="98.9336" x2="215.194" y2="98.9336" stroke="white"/>
<path d="M221.119 98.7202C221.119 101.595 218.787 103.927 215.908 103.927C213.029 103.927 210.696 101.595 210.696 98.7202C210.696 95.8453 213.029 93.5139 215.908 93.5139C218.787 93.5139 221.119 95.8453 221.119 98.7202Z" stroke="#A6EB4D"/>
<ellipse cx="215.907" cy="98.7202" rx="3.5699" ry="3.56643" fill="white"/>
<ellipse cx="215.907" cy="98.7203" rx="1.42796" ry="1.42657" fill="#272628"/>
</svg>
