<svg width="26" height="26" viewBox="0 0 26 26" fill="none" xmlns="http://www.w3.org/2000/svg">
<g clip-path="url(#clip0_1150_1730)" filter="url(#filter0_f_1150_1730)">
<path d="M16.375 4H9.625C6.51888 4 4 6.51888 4 9.625V16.375C4 19.4811 6.51888 22 9.625 22H16.375C19.4811 22 22 19.4811 22 16.375V9.625C22 6.51888 19.4811 4 16.375 4ZM20.3125 16.375C20.3125 18.5463 18.5463 20.3125 16.375 20.3125H9.625C7.45375 20.3125 5.6875 18.5463 5.6875 16.375V9.625C5.6875 7.45375 7.45375 5.6875 9.625 5.6875H16.375C18.5463 5.6875 20.3125 7.45375 20.3125 9.625V16.375Z" fill="#862639"/>
<path d="M13 8.5C10.5149 8.5 8.5 10.5149 8.5 13C8.5 15.4851 10.5149 17.5 13 17.5C15.4851 17.5 17.5 15.4851 17.5 13C17.5 10.5149 15.4851 8.5 13 8.5ZM13 15.8125C11.4497 15.8125 10.1875 14.5503 10.1875 13C10.1875 11.4486 11.4497 10.1875 13 10.1875C14.5503 10.1875 15.8125 11.4486 15.8125 13C15.8125 14.5503 14.5503 15.8125 13 15.8125Z" fill="#862639"/>
<path d="M17.8374 8.76215C18.1686 8.76215 18.437 8.49368 18.437 8.16252C18.437 7.83136 18.1686 7.5629 17.8374 7.5629C17.5063 7.5629 17.2378 7.83136 17.2378 8.16252C17.2378 8.49368 17.5063 8.76215 17.8374 8.76215Z" fill="#862639"/>
</g>
<defs>
<filter id="filter0_f_1150_1730" x="0" y="0" width="26" height="26" filterUnits="userSpaceOnUse" color-interpolation-filters="sRGB">
<feFlood flood-opacity="0" result="BackgroundImageFix"/>
<feBlend mode="normal" in="SourceGraphic" in2="BackgroundImageFix" result="shape"/>
<feGaussianBlur stdDeviation="2" result="effect1_foregroundBlur_1150_1730"/>
</filter>
<clipPath id="clip0_1150_1730">
<rect width="18" height="18" fill="white" transform="translate(4 4)"/>
</clipPath>
</defs>
</svg>
