<svg width="18" height="13" viewBox="0 0 18 13" fill="none" xmlns="http://www.w3.org/2000/svg">
<path d="M17.081 2.78217C16.8865 2.05924 16.3165 1.48936 15.5937 1.29469C14.2732 0.93338 8.991 0.93338 8.991 0.93338C8.991 0.93338 3.70902 0.93338 2.3885 1.28099C1.67957 1.47545 1.09568 2.05934 0.901222 2.78217C0.553711 4.10259 0.553711 6.84096 0.553711 6.84096C0.553711 6.84096 0.553711 9.59314 0.901222 10.8998C1.09589 11.6226 1.66566 12.1925 2.3886 12.3871C3.72292 12.7485 8.99121 12.7485 8.99121 12.7485C8.99121 12.7485 14.2732 12.7485 15.5937 12.4009C16.3167 12.2064 16.8865 11.6365 17.0812 10.9137C17.4286 9.59314 17.4286 6.85487 17.4286 6.85487C17.4286 6.85487 17.4425 4.10259 17.081 2.78217ZM7.30927 9.37077V4.31116L11.7017 6.84096L7.30927 9.37077Z" fill="#862639"/>
</svg>
